<svg width="817" height="150" viewBox="0 0 817 150" fill="none" xmlns="http://www.w3.org/2000/svg">
<path fill-rule="evenodd" clip-rule="evenodd" d="M0.763275 74.8795C0.763275 33.7498 34.1055 0.407654 75.2352 0.407654H742.437C783.567 0.407654 816.909 33.7498 816.909 74.8795C816.909 116.009 783.567 149.351 742.437 149.351H75.2351C34.1054 149.351 0.763275 116.009 0.763275 74.8795ZM58.1385 104.38L41.4908 46.1977H54.9283L64.5589 86.6239H65.0419L75.6669 46.1977H87.1726L97.7692 86.7091H98.2805L107.911 46.1977H121.349L104.701 104.38H92.7123L81.6328 66.3398H81.1783L70.1271 104.38H58.1385ZM135.461 105.203C132.677 105.203 130.196 104.72 128.018 103.755C125.84 102.77 124.116 101.321 122.847 99.408C121.597 97.4761 120.972 95.0708 120.972 92.192C120.972 89.7678 121.417 87.7318 122.308 86.0841C123.198 84.4364 124.41 83.1106 125.944 82.1068C127.478 81.103 129.22 80.3455 131.171 79.8341C133.141 79.3227 135.205 78.9629 137.364 78.7545C139.902 78.4894 141.948 78.2432 143.501 78.0159C145.054 77.7697 146.181 77.4099 146.881 76.9364C147.582 76.4629 147.933 75.7621 147.933 74.8341V74.6636C147.933 72.8644 147.364 71.4724 146.228 70.4875C145.111 69.5027 143.52 69.0102 141.455 69.0102C139.277 69.0102 137.544 69.4932 136.256 70.4591C134.969 71.4061 134.116 72.5992 133.7 74.0386L122.506 73.1295C123.075 70.478 124.192 68.1864 125.859 66.2545C127.525 64.3038 129.675 62.8076 132.308 61.7659C134.959 60.7053 138.027 60.175 141.512 60.175C143.936 60.175 146.256 60.4591 148.472 61.0273C150.707 61.5955 152.686 62.4761 154.41 63.6693C156.152 64.8625 157.525 66.3966 158.529 68.2716C159.533 70.1277 160.035 72.353 160.035 74.9477V104.38H148.558V98.3284H148.217C147.516 99.692 146.578 100.895 145.404 101.936C144.23 102.959 142.819 103.764 141.171 104.351C139.523 104.919 137.62 105.203 135.461 105.203ZM138.927 96.8511C140.707 96.8511 142.279 96.5008 143.643 95.8C145.006 95.0803 146.076 94.1144 146.853 92.9023C147.629 91.6902 148.018 90.317 148.018 88.783V84.1523C147.639 84.3985 147.118 84.6258 146.455 84.8341C145.811 85.0235 145.082 85.2034 144.268 85.3739C143.453 85.5254 142.639 85.6674 141.825 85.8C141.01 85.9136 140.272 86.0178 139.609 86.1125C138.188 86.3208 136.948 86.6523 135.887 87.1068C134.826 87.5614 134.003 88.1769 133.415 88.9534C132.828 89.711 132.535 90.658 132.535 91.7943C132.535 93.442 133.131 94.7015 134.325 95.5727C135.537 96.425 137.071 96.8511 138.927 96.8511ZM192.634 60.7432V69.8341H184.424V90.9705C184.424 92.0879 184.594 92.9591 184.935 93.5841C185.276 94.1902 185.75 94.6163 186.356 94.8625C186.981 95.1087 187.701 95.2318 188.515 95.2318C189.083 95.2318 189.651 95.1845 190.219 95.0898C190.788 94.9761 191.223 94.8909 191.526 94.8341L193.43 103.84C192.824 104.029 191.971 104.247 190.873 104.493C189.774 104.758 188.439 104.919 186.867 104.976C183.951 105.09 181.394 104.702 179.197 103.811C177.019 102.921 175.324 101.539 174.111 99.6636C172.899 97.7886 172.303 95.4212 172.322 92.5614V69.8341H166.356V60.7432H172.322V50.2886H184.424V60.7432H192.634ZM219.765 105.232C215.295 105.232 211.451 104.285 208.231 102.391C205.03 100.478 202.568 97.8265 200.844 94.4364C199.14 91.0462 198.288 87.1447 198.288 82.7318C198.288 78.2621 199.149 74.3417 200.873 70.9705C202.615 67.5803 205.087 64.9383 208.288 63.0443C211.488 61.1314 215.295 60.175 219.708 60.175C223.515 60.175 226.848 60.8663 229.708 62.2489C232.568 63.6314 234.831 65.5727 236.498 68.0727C238.165 70.5727 239.083 73.5083 239.254 76.8795H227.833C227.511 74.7015 226.659 72.9496 225.276 71.6239C223.913 70.2792 222.123 69.6068 219.907 69.6068C218.032 69.6068 216.394 70.1182 214.992 71.1409C213.61 72.1447 212.53 73.6125 211.754 75.5443C210.977 77.4761 210.589 79.8152 210.589 82.5614C210.589 85.3455 210.968 87.7129 211.725 89.6636C212.502 91.6144 213.591 93.1011 214.992 94.1239C216.394 95.1466 218.032 95.658 219.907 95.658C221.29 95.658 222.53 95.3739 223.629 94.8057C224.746 94.2375 225.665 93.4136 226.384 92.3341C227.123 91.2356 227.606 89.9193 227.833 88.3852H239.254C239.064 91.7186 238.155 94.6542 236.526 97.192C234.916 99.711 232.691 101.681 229.85 103.101C227.009 104.522 223.647 105.232 219.765 105.232ZM259.104 79.1523V104.38H247.002V46.1977H258.763V68.442H259.275C260.26 65.8663 261.851 63.8492 264.048 62.3909C266.245 60.9136 269 60.175 272.315 60.175C275.345 60.175 277.987 60.8379 280.241 62.1636C282.513 63.4705 284.275 65.3549 285.525 67.817C286.794 70.2602 287.419 73.1864 287.4 76.5955V104.38H275.298V78.7545C275.317 76.0652 274.635 73.9724 273.252 72.4761C271.888 70.9799 269.976 70.2318 267.513 70.2318C265.866 70.2318 264.407 70.5822 263.138 71.283C261.888 71.9837 260.904 73.0064 260.184 74.3511C259.483 75.6769 259.123 77.2773 259.104 79.1523ZM315.44 60.7432H326.974V68.442H327.485C328.394 65.8852 329.909 63.8682 332.031 62.3909C334.152 60.9136 336.69 60.175 339.644 60.175C342.637 60.175 345.184 60.9231 347.286 62.4193C349.388 63.8966 350.79 65.9042 351.491 68.442H351.945C352.835 65.942 354.445 63.9439 356.775 62.4477C359.123 60.9326 361.898 60.175 365.099 60.175C369.171 60.175 372.476 61.4724 375.013 64.067C377.57 66.6428 378.849 70.2981 378.849 75.033V104.38H366.775V77.4193C366.775 74.9951 366.131 73.1769 364.843 71.9648C363.555 70.7527 361.945 70.1466 360.013 70.1466C357.817 70.1466 356.103 70.8474 354.871 72.2489C353.64 73.6314 353.025 75.4591 353.025 77.7318V104.38H341.292V77.1636C341.292 75.0235 340.676 73.3189 339.445 72.05C338.233 70.7811 336.633 70.1466 334.644 70.1466C333.299 70.1466 332.087 70.4875 331.008 71.1693C329.947 71.8322 329.104 72.7697 328.479 73.9818C327.854 75.175 327.542 76.5765 327.542 78.1864V104.38H315.44V60.7432ZM394.317 120.743C392.783 120.743 391.344 120.62 389.999 120.374C388.674 120.147 387.575 119.853 386.704 119.493L389.431 110.459C390.852 110.895 392.13 111.131 393.266 111.169C394.422 111.207 395.416 110.942 396.249 110.374C397.102 109.806 397.793 108.84 398.323 107.476L399.033 105.63L383.38 60.7432H396.107L405.141 92.7886H405.596L414.715 60.7432H427.528L410.567 109.095C409.753 111.444 408.645 113.489 407.244 115.232C405.861 116.993 404.109 118.347 401.988 119.294C399.867 120.26 397.31 120.743 394.317 120.743ZM488.543 73.1864L477.464 73.8682C477.274 72.9212 476.867 72.0689 476.242 71.3114C475.617 70.5349 474.793 69.9193 473.771 69.4648C472.767 68.9913 471.564 68.7545 470.163 68.7545C468.288 68.7545 466.706 69.1523 465.418 69.9477C464.13 70.7242 463.487 71.7659 463.487 73.0727C463.487 74.1144 463.903 74.9951 464.737 75.7148C465.57 76.4345 467 77.0121 469.026 77.4477L476.924 79.0386C481.166 79.9099 484.329 81.3114 486.413 83.2432C488.496 85.175 489.538 87.7129 489.538 90.8568C489.538 93.7167 488.695 96.2261 487.009 98.3852C485.343 100.544 483.051 102.23 480.134 103.442C477.237 104.635 473.894 105.232 470.106 105.232C464.329 105.232 459.727 104.029 456.299 101.624C452.89 99.1996 450.892 95.9042 450.305 91.7375L462.208 91.1125C462.568 92.8739 463.439 94.2186 464.822 95.1466C466.204 96.0557 467.975 96.5102 470.134 96.5102C472.255 96.5102 473.96 96.103 475.248 95.2886C476.555 94.4553 477.218 93.3852 477.237 92.0784C477.218 90.9799 476.754 90.0803 475.844 89.3795C474.935 88.6599 473.534 88.1106 471.64 87.7318L464.083 86.2261C459.822 85.3739 456.649 83.8966 454.566 81.7943C452.502 79.692 451.469 77.0121 451.469 73.7545C451.469 70.9515 452.227 68.5367 453.742 66.5102C455.276 64.4837 457.426 62.9212 460.191 61.8227C462.975 60.7242 466.233 60.175 469.964 60.175C475.475 60.175 479.812 61.3398 482.975 63.6693C486.157 65.9989 488.013 69.1712 488.543 73.1864ZM520.369 60.7432V69.8341H512.158V90.9705C512.158 92.0879 512.329 92.9591 512.67 93.5841C513.011 94.1902 513.484 94.6163 514.09 94.8625C514.715 95.1087 515.435 95.2318 516.249 95.2318C516.817 95.2318 517.386 95.1845 517.954 95.0898C518.522 94.9761 518.958 94.8909 519.261 94.8341L521.164 103.84C520.558 104.029 519.706 104.247 518.607 104.493C517.509 104.758 516.174 104.919 514.602 104.976C511.685 105.09 509.128 104.702 506.931 103.811C504.753 102.921 503.058 101.539 501.846 99.6636C500.634 97.7886 500.037 95.4212 500.056 92.5614V69.8341H494.09V60.7432H500.056V50.2886H512.158V60.7432H520.369ZM547.499 105.232C543.086 105.232 539.27 104.294 536.05 102.419C532.85 100.525 530.378 97.8928 528.636 94.5216C526.893 91.1314 526.022 87.2015 526.022 82.7318C526.022 78.2242 526.893 74.2849 528.636 70.9136C530.378 67.5235 532.85 64.8909 536.05 63.0159C539.27 61.122 543.086 60.175 547.499 60.175C551.912 60.175 555.719 61.122 558.92 63.0159C562.139 64.8909 564.621 67.5235 566.363 70.9136C568.105 74.2849 568.977 78.2242 568.977 82.7318C568.977 87.2015 568.105 91.1314 566.363 94.5216C564.621 97.8928 562.139 100.525 558.92 102.419C555.719 104.294 551.912 105.232 547.499 105.232ZM547.556 95.8568C549.564 95.8568 551.24 95.2886 552.585 94.1523C553.929 92.997 554.942 91.425 555.624 89.4364C556.325 87.4477 556.675 85.1845 556.675 82.6466C556.675 80.1087 556.325 77.8455 555.624 75.8568C554.942 73.8682 553.929 72.2962 552.585 71.1409C551.24 69.9856 549.564 69.408 547.556 69.408C545.53 69.408 543.825 69.9856 542.442 71.1409C541.079 72.2962 540.047 73.8682 539.346 75.8568C538.664 77.8455 538.323 80.1087 538.323 82.6466C538.323 85.1845 538.664 87.4477 539.346 89.4364C540.047 91.425 541.079 92.997 542.442 94.1523C543.825 95.2886 545.53 95.8568 547.556 95.8568ZM576.846 60.7432H588.579V68.3568H589.033C589.829 65.6485 591.164 63.603 593.039 62.2205C594.914 60.8189 597.073 60.1182 599.516 60.1182C600.122 60.1182 600.776 60.1561 601.477 60.2318C602.177 60.3076 602.793 60.4117 603.323 60.5443V71.283C602.755 71.1125 601.969 70.961 600.965 70.8284C599.961 70.6958 599.043 70.6295 598.21 70.6295C596.429 70.6295 594.838 71.0178 593.437 71.7943C592.054 72.5519 590.956 73.6125 590.141 74.9761C589.346 76.3398 588.948 77.9117 588.948 79.692V104.38H576.846V60.7432ZM618.38 120.743C616.846 120.743 615.406 120.62 614.062 120.374C612.736 120.147 611.638 119.853 610.766 119.493L613.494 110.459C614.914 110.895 616.192 111.131 617.329 111.169C618.484 111.207 619.478 110.942 620.312 110.374C621.164 109.806 621.855 108.84 622.386 107.476L623.096 105.63L607.442 60.7432H620.17L629.204 92.7886H629.658L638.778 60.7432H651.59L634.63 109.095C633.816 111.444 632.708 113.489 631.306 115.232C629.924 116.993 628.172 118.347 626.05 119.294C623.929 120.26 621.372 120.743 618.38 120.743ZM780.716 72.7516L742.532 34.5679C740.189 32.2247 736.39 32.2247 734.047 34.5679C731.704 36.911 731.704 40.71 734.047 43.0531L761.988 70.9943H681.542V82.9943H761.988L734.047 110.935C731.704 113.279 731.704 117.078 734.047 119.421C736.39 121.764 740.189 121.764 742.532 119.421L780.716 81.2369C783.059 78.8938 783.059 75.0948 780.716 72.7516Z" fill="white"/>
</svg>
