<svg width="403" height="248" viewBox="0 0 403 248" fill="none" xmlns="http://www.w3.org/2000/svg">
<path fill-rule="evenodd" clip-rule="evenodd" d="M57.1796 243.874H55.1796H35.2384H33.2384V241.874V153.702H2.70654H0.706543V151.702V143.805V135.909V133.909H2.70654H35.2384H55.1796H88.0754H90.0754V135.909V151.702V153.702H88.0754H57.1796V241.874V243.874ZM55.1796 137.909H86.0754V149.702H55.1796H53.1796V151.702V239.874H37.2384V151.702V149.702H35.2384H4.70654V143.805V137.909H35.2384H55.1796ZM390.204 243.874H388.204H368.117H366.997L366.412 242.919L325.068 175.459V241.874V243.874H323.068H303.054H301.054V241.874V135.909V133.909H303.054H323.068H324.186L324.772 134.862L366.263 202.41V136.704H357.628H353.222L355.068 132.704L375.762 87.8679L377.964 83.0953L380.167 87.8679L400.861 132.704L402.707 136.704H398.301H390.204V188.891V241.874V243.874ZM370.263 209.488V136.704H370.312V132.704H359.474L377.964 92.6405L396.455 132.704H386.181V136.704H386.204V188.891V239.874H369.237L324.773 167.323L321.068 161.277V168.368V239.874H305.054V137.909H321.949L366.559 210.534L370.263 216.565V209.488ZM80.9403 90.9899V94.9899V110.71V114.71H76.9403H33.7073H29.7073H23.6667H19.6667H9.69325H5.69325V110.71V4.74487V0.744873H9.69325H29.7073H33.7073V4.74487V90.9899H76.9403H80.9403ZM33.7073 94.9899H72.9403H76.9403V98.9899V106.71V110.71H72.9403H33.7073H29.7073H27.6667H25.7073H23.6667H19.6667H13.6933H9.69325V106.71V8.74487V4.74487H13.6933H25.7073H29.7073V8.74487V90.9899V94.9899H33.7073ZM142.516 0.744873H146.516H166.53H170.53V4.74487V75.1214C170.53 83.7999 168.656 91.4007 164.672 97.7081L164.668 97.7148L164.664 97.7215C160.753 103.859 155.409 108.512 148.721 111.64L148.708 111.646L148.696 111.652C142.08 114.693 134.655 116.166 126.502 116.166C118.26 116.166 110.766 114.696 104.101 111.657L104.089 111.651L104.077 111.646C97.3354 108.518 91.9788 103.859 88.1091 97.7002L88.1048 97.6935L88.1007 97.6867C84.1746 91.3829 82.3287 83.7902 82.3287 75.1214V4.74487V0.744873H86.3287H106.343H110.343V4.74487V75.1214C110.343 79.656 111.103 83.0089 112.356 85.4105C113.634 87.8105 115.367 89.4989 117.593 90.6116C119.934 91.7822 122.861 92.4454 126.502 92.4454C130.203 92.4454 133.116 91.7783 135.389 90.6234L135.4 90.6175L135.412 90.6116C137.627 89.5042 139.326 87.83 140.554 85.4537C141.776 83.0402 142.516 79.6706 142.516 75.1214V4.74487V0.744873ZM144.115 87.2754C142.514 90.3806 140.209 92.6852 137.201 94.1893C134.241 95.6934 130.675 96.4454 126.502 96.4454C122.378 96.4454 118.812 95.6934 115.804 94.1893C112.796 92.6852 110.467 90.3806 108.817 87.2754C107.168 84.1217 106.343 80.0703 106.343 75.1214V8.74487V4.74487H102.343H90.3287H86.3287V8.74487V75.1214C86.3287 83.2241 88.0511 90.041 91.496 95.5721C94.9408 101.055 99.6957 105.203 105.761 108.017C111.825 110.783 118.739 112.166 126.502 112.166C134.168 112.166 141.009 110.783 147.026 108.017C153.042 105.203 157.797 101.055 161.29 95.5721C164.784 90.041 166.53 83.2241 166.53 75.1214V8.74487V4.74487H162.53H150.516H146.516V8.74487V75.1214C146.516 80.0703 145.716 84.1217 144.115 87.2754ZM209.539 0.744873V4.74487V42.4441L212.488 38.6193L212.508 38.593L212.529 38.567L241.494 2.25068L242.695 0.744873H244.621H269.148H277.617L272.237 7.28587L235.595 51.833L273.987 108.465L278.22 114.71H270.676H246.878H244.732L243.546 112.923L216.854 72.738L209.539 80.5559V110.71V114.71H205.539H185.525H181.525V110.71V4.74487V0.744873H185.525H205.539H209.539ZM205.539 84.8314V81.8116V78.9765L205.737 78.7652L209.539 74.701L214.579 69.314L217.388 66.3124L219.662 69.7364L246.878 110.71H265.844H270.676L267.964 106.71L232.946 55.0537L230.606 51.6018L233.255 48.3811L265.858 8.74487L269.148 4.74487H263.968H244.621L215.656 41.0612L209.539 48.9964L205.539 54.1861V47.6338V8.74487V4.74487H201.539H189.525H185.525V8.74487V106.71V110.71H189.525H201.539H205.539V106.71V84.8314ZM360.84 90.9899V94.9899V110.71V114.71H356.84H310.623H306.623H300.509H296.509H286.609H282.609V110.71V4.74487V0.744873H286.609H296.509H300.509H306.623H310.623H356.621H360.621V4.74487V20.5378V24.5378H356.621H310.623V44.4846H349.489H353.489V48.4846V63.8408V67.8408H349.489H310.623V90.9899H356.84H360.84ZM306.623 90.9899V94.9899H310.623H352.84H356.84V98.9899V106.71V110.71H352.84H310.623H306.623H304.509H302.623H300.509H296.509H290.609H286.609V106.71V8.74487V4.74487H290.609H296.509H300.509H302.623H304.509H306.623H310.623H352.621H356.621V8.74487V16.5377V20.5378H352.621H310.623H306.623V24.5378V44.4846V48.4846H310.623H345.489H349.489V52.4846V59.8408V63.8408H345.489H310.623H306.623V67.8408V90.9899ZM159.325 131.909H163.325H183.339H187.339V135.909V206.285C187.339 214.964 185.465 222.565 181.481 228.872L181.477 228.879L181.473 228.885C177.562 235.023 172.218 239.676 165.529 242.804L165.517 242.81L165.505 242.815C158.888 245.857 151.463 247.329 143.311 247.329C135.069 247.329 127.575 245.86 120.91 242.82L120.898 242.815L120.886 242.809C114.144 239.681 108.788 235.023 104.918 228.864L104.914 228.857L104.91 228.851C100.983 222.547 99.1376 214.954 99.1376 206.285V135.909V131.909H103.138H123.152H127.152V135.909V206.285C127.152 210.82 127.912 214.173 129.165 216.574C130.442 218.974 132.176 220.663 134.402 221.775C136.743 222.946 139.67 223.609 143.311 223.609C147.012 223.609 149.925 222.942 152.197 221.787L152.209 221.781L152.221 221.775C154.435 220.668 156.134 218.994 157.362 216.618C158.585 214.204 159.325 210.835 159.325 206.285V135.909V131.909ZM160.924 218.439C159.322 221.544 157.018 223.849 154.01 225.353C151.05 226.857 147.484 227.609 143.311 227.609C139.187 227.609 135.621 226.857 132.613 225.353C129.605 223.849 127.276 221.544 125.626 218.439C123.976 215.286 123.152 211.234 123.152 206.285V139.909V135.909H119.152H107.138H103.138V139.909V206.285C103.138 214.388 104.86 221.205 108.305 226.736C111.75 232.219 116.505 236.367 122.569 239.181C128.634 241.947 135.548 243.329 143.311 243.329C150.977 243.329 157.818 241.947 163.835 239.181C169.851 236.367 174.606 232.219 178.099 226.736C181.593 221.205 183.339 214.388 183.339 206.285V139.909V135.909H179.339H167.325H163.325V139.909V206.285C163.325 211.234 162.525 215.286 160.924 218.439ZM201.315 131.909H205.315H243.815C252.255 131.909 259.723 133.178 266.106 135.86C272.537 138.562 277.638 142.64 281.224 148.132C284.84 153.668 286.533 160.317 286.533 167.858C286.533 173.809 285.479 179.182 283.225 183.859C281.015 188.446 277.877 192.307 273.843 195.405C272.237 196.653 270.521 197.784 268.699 198.799L290.138 238.972L290.609 239.854V240.855V241.874V245.874H286.609H265.139H262.704L261.586 243.71L242.014 205.846H229.329V241.874V245.874H225.329H205.315H201.315V241.874V135.909V131.909ZM225.329 205.846V201.846H229.329H239.947H244.45L246.517 205.846L265.139 241.874H282.609H282.618H284.699H286.609V240.855L285.018 237.874L265.119 200.586L263.231 197.047C264.477 196.502 265.672 195.909 266.816 195.269C268.448 194.356 269.975 193.346 271.398 192.239C274.94 189.522 277.681 186.15 279.622 182.123C281.563 178.096 282.533 173.341 282.533 167.858C282.533 160.92 280.98 155.074 277.875 150.319C274.77 145.564 270.331 141.974 264.557 139.548C258.783 137.122 251.869 135.909 243.815 135.909H209.315H205.315V139.909V237.874V241.874H209.315H221.329H225.329V237.874V205.846ZM229.329 186.053H244.033C248.157 186.053 251.578 185.325 254.295 183.87C257.012 182.414 259.05 180.4 260.408 177.829C261.815 175.257 262.519 172.322 262.519 169.023C262.519 165.481 261.84 162.424 260.481 159.853C259.123 157.233 257.061 155.219 254.295 153.812C251.529 152.405 248.036 151.702 243.815 151.702H229.329H225.329V155.702V182.053V186.053H229.329ZM229.329 182.053H244.033C247.712 182.053 250.433 181.401 252.406 180.344C254.465 179.24 255.908 177.785 256.872 175.96L256.885 175.935L256.899 175.909C257.946 173.997 258.519 171.737 258.519 169.023C258.519 165.992 257.939 163.604 256.944 161.721L256.937 161.708L256.93 161.694C255.977 159.856 254.543 158.426 252.481 157.377C250.443 156.34 247.622 155.702 243.815 155.702H229.329V182.053Z" fill="white"/>
</svg>
